# xmcd
#
# Track frame offsets:
# 150
# 24164
# 41198
# 73373
# 96000
# 119812
# 134918
# 160385
# 194691
# 216485
#
# Disc length: 3292 seconds
#
#
# Revision: 0
# Processed by: cddbd v1.4PL0 Copyright (c) Steve Scherf et al.
# Submitted via: FreeRIP 2.11 
#
DISCID=a80cda0a
DTITLE=Peter Green  - Soho - Live At Ronnie Scotts
DYEAR=1998
DGENRE=Blues
TTITLE0=It Takes Time
TTITLE1=Homework
TTITLE2=Black Magic Woman
TTITLE3=Rattlesnake Shake
TTITLE4=Shake Your Hips
TTITLE5=Last Fair Deal Gone Down
TTITLE6=If I Had Possession Over Judgement Day
TTITLE7=Goin' Down
TTITLE8=Help Me
TTITLE9=Look On Yonder Wall
EXTD=Splinter Group\nSelect Tracks Only
EXTT0=
EXTT1=
EXTT2=
EXTT3=
EXTT4=
EXTT5=
EXTT6=
EXTT7=
EXTT8=
EXTT9=
PLAYORDER=
